<?xml version="1.0" encoding="UTF-8"?>
<svg xmlns="http://www.w3.org/2000/svg" width="16" height="16" viewBox="0 0 16 16">
  <defs>
    <linearGradient id="gsGradientDark" x1="0%" y1="0%" x2="100%" y2="100%">
      <stop offset="0%" style="stop-color:#32CD32;stop-opacity:1" />
      <stop offset="100%" style="stop-color:#98FB98;stop-opacity:1" />
    </linearGradient>
  </defs>
  <!-- Background file shape -->
  <path d="M3 1h8l2 2v11a1 1 0 0 1-1 1H3a1 1 0 0 1-1-1V2a1 1 0 0 1 1-1z" 
        fill="url(#gsGradientDark)" stroke="#228B22" stroke-width="0.5"/>
  <!-- Folded corner -->
  <path d="M11 1v2h2z" fill="#98FB98" stroke="#228B22" stroke-width="0.3"/>
  <!-- GoiásScript logo elements -->
  <!-- Letter "G" -->
  <path d="M4.5 6.5c0-0.8 0.6-1.4 1.4-1.4s1.4 0.6 1.4 1.4H6.5c0-0.3-0.2-0.5-0.5-0.5s-0.5 0.2-0.5 0.5v1c0 0.3 0.2 0.5 0.5 0.5h0.3v-0.3H6.1v-0.4h0.8v1.1c0 0.3-0.2 0.5-0.5 0.5-0.8 0-1.4-0.6-1.4-1.4z" 
        fill="#1a1a1a"/>
  <!-- Letter "S" -->
  <path d="M8.5 5.5c0-0.3 0.2-0.5 0.5-0.5s0.5 0.2 0.5 0.5H10c0-0.6-0.4-1-1-1s-1 0.4-1 1c0 0.4 0.2 0.7 0.5 0.8L9 6.5c0.2 0.1 0.3 0.2 0.3 0.4s-0.2 0.4-0.3 0.4-0.3-0.2-0.3-0.4H8.2c0 0.6 0.4 1 1 1s1-0.4 1-1c0-0.4-0.2-0.7-0.5-0.8L9.2 6.4c-0.2-0.1-0.3-0.2-0.3-0.4s0.1-0.3 0.3-0.3 0.3 0.1 0.3 0.3z" 
        fill="#1a1a1a"/>
  <!-- Brazil flag inspired accent -->
  <ellipse cx="6.5" cy="10.5" rx="1.5" ry="0.8" fill="#FFD700" stroke="#FFA500" stroke-width="0.1"/>
  <text x="6.5" y="11" font-family="Arial" font-size="1.5" font-weight="bold" text-anchor="middle" fill="#006600">GS</text>
</svg>